<?xml version="1.0" encoding="UTF-8"?>
<svg version="1.1" xmlns="http://www.w3.org/2000/svg" width="1024" height="1024">
<path d="M0 0 C0.74507812 0.185625 1.49015625 0.37125 2.2578125 0.5625 C3.12019531 0.7790625 3.12019531 0.7790625 4 1 C3.67 1.33 3.34 1.66 3 2 C3.65226563 2.37511719 4.30453125 2.75023437 4.9765625 3.13671875 C5.85054687 3.64847656 6.72453125 4.16023438 7.625 4.6875 C8.91277344 5.43580078 8.91277344 5.43580078 10.2265625 6.19921875 C15.7432208 9.78116168 19.84929417 13.67911731 23.625 19.0625 C24.72714844 20.59583984 24.72714844 20.59583984 25.8515625 22.16015625 C31.56061408 31.54895107 32.6304973 41.35481917 32.75 52.125 C32.778864 53.51092795 32.80885201 54.89683285 32.83984375 56.28271484 C33.15565772 72.27577313 33.05575991 88.28286612 32.96386719 104.27783203 C32.95949646 105.33264771 32.95512573 106.38746338 32.95062256 107.47424316 C32.94212706 109.45839724 32.92957476 111.44253982 32.91217041 113.42663574 C32.8980021 117.33761752 32.93725209 121.10087332 33.56640625 124.96630859 C34 128 34 128 33 131 C32.91788954 132.55285889 32.89254018 134.10906515 32.90234375 135.6640625 C32.90564697 136.60934814 32.9089502 137.55463379 32.91235352 138.52856445 C32.92480103 140.06130005 32.92480103 140.06130005 32.9375 141.625 C32.94128662 142.68227295 32.94507324 143.7395459 32.94897461 144.82885742 C32.96529614 149.35258746 32.99322153 153.87622718 33.02050781 158.39990234 C33.03874447 161.7040972 33.05075098 165.00827667 33.0625 168.3125 C33.07494751 169.82094482 33.07494751 169.82094482 33.08764648 171.35986328 C33.11011542 177.96134756 32.71223232 184.43734529 32 191 C32.66 191.33 33.32 191.66 34 192 C33.7847629 193.54253258 33.56575929 195.08457288 33.3359375 196.625 C33.08595094 198.39234681 32.86686928 200.16411977 32.6640625 201.9375 C30.90492593 215.74506248 26.06360702 226.94124247 15.4609375 236.22265625 C1.05405538 247.32882618 -13.75813277 249.31587446 -31.47045898 249.24291992 C-32.99939047 249.24399515 -34.52832156 249.2459374 -36.05725098 249.24867249 C-40.17921563 249.25348591 -44.30107063 249.24590862 -48.42302203 249.23571944 C-52.75622079 249.22687698 -57.08941674 249.22869761 -61.42262268 249.2290802 C-68.6978639 249.22814608 -75.97306319 249.21949723 -83.24829102 249.20581055 C-91.63309008 249.19009371 -100.01784328 249.18481243 -108.40265602 249.1855461 C-117.36597568 249.1862242 -126.32927792 249.17926802 -135.29259229 249.1700995 C-137.85896132 249.16797878 -140.42532749 249.16725977 -142.99169731 249.16686058 C-147.04078441 249.165848 -151.08983379 249.1596776 -155.13890839 249.14969444 C-156.61581503 249.14680053 -158.09272603 249.14553767 -159.56963539 249.14612198 C-178.88138488 249.15086664 -178.88138488 249.15086664 -185 248 C-185.33 247.34 -185.66 246.68 -186 246 C-189.1902456 244.46345515 -192.44093886 243.10693417 -195.703125 241.73046875 C-199.21917261 239.88496035 -201.34029543 237.92343999 -204 235 C-204.66902344 234.32839844 -205.33804688 233.65679688 -206.02734375 232.96484375 C-219.05914888 219.13354137 -221.46789267 202.74225554 -221.40405273 184.34423828 C-221.40977237 182.8312022 -221.41674271 181.31817043 -221.42485046 179.80514526 C-221.44262186 175.73885046 -221.441644 171.67277331 -221.43590808 167.60645151 C-221.43279262 164.19240075 -221.43893466 160.7783904 -221.44494683 157.36434543 C-221.45893804 149.3003164 -221.45747622 141.23639344 -221.44604492 133.17236328 C-221.43457072 124.8959647 -221.44863998 116.61989046 -221.4754414 108.34353459 C-221.49770314 101.19739085 -221.50421229 94.05134813 -221.49836498 86.90517223 C-221.49501891 82.65481276 -221.49725186 78.404661 -221.51461601 74.15433121 C-221.53025136 70.1534702 -221.52594921 66.15308412 -221.50731087 62.15224075 C-221.50367022 60.69797344 -221.50659831 59.24366959 -221.51719666 57.78943634 C-221.63838636 39.76116283 -217.91000099 24.6442366 -205.38671875 11.29296875 C-196.41891864 2.67742265 -185.20600547 -2.07627084 -172.78730774 -2.16494751 C-171.53591003 -2.17618149 -170.28451233 -2.18741547 -168.99519348 -2.19898987 C-167.61569267 -2.20648865 -166.2361913 -2.21388575 -164.85668945 -2.22119141 C-163.39748834 -2.2324154 -161.93829032 -2.244048 -160.47909546 -2.25605774 C-156.51758832 -2.28735086 -152.55606424 -2.31250335 -148.59450555 -2.3362546 C-145.27553781 -2.35673095 -141.95659457 -2.3802571 -138.63764733 -2.40379179 C-130.79092695 -2.45940451 -122.94418545 -2.51010699 -115.09741211 -2.55761719 C-107.04341392 -2.60645314 -98.98949411 -2.66278662 -90.93557388 -2.72303832 C-83.99514682 -2.77472724 -77.05469912 -2.82197814 -70.11421746 -2.86572587 C-65.98108968 -2.89179994 -61.8479877 -2.91937737 -57.71489906 -2.9510994 C-12.80179542 -3.29042131 -12.80179542 -3.29042131 0 0 Z " fill="#2270FD" transform="translate(308,376)"/>
<path d="M0 0 C35.31 0 70.62 0 107 0 C107 7.59 107 15.18 107 23 C96.44 23 85.88 23 75 23 C76.65 26.3 78.3 29.6 80 33 C80.495 36.96 80.495 36.96 81 41 C89.58 41 98.16 41 107 41 C107 48.26 107 55.52 107 63 C98.09 63 89.18 63 80 63 C79.67 64.98 79.34 66.96 79 69 C72.4857019 81.9192959 60.96246571 89.75081249 47.5625 94.4375 C43.89470787 95.63015622 40.85820476 96.17505466 37 96 C42.44198615 103.02089897 47.92012575 109.99224801 53.6875 116.75 C58.23770112 122.08156499 62.66747861 127.49016302 67 133 C67.61359375 133.74378906 68.2271875 134.48757813 68.859375 135.25390625 C69.42140625 135.95386719 69.9834375 136.65382813 70.5625 137.375 C71.05878906 137.98085938 71.55507812 138.58671875 72.06640625 139.2109375 C73 141 73 141 72.87109375 143 C71.80088187 145.45716808 70.45783661 146.80357004 68.5 148.625 C65.88193354 151.03610916 65.88193354 151.03610916 64 154 C60.04839774 154.98012182 56.94518874 155.07771009 53 154 C48.88611126 150.4189984 45.70662622 146.32755121 42.45996094 141.96240234 C40.67274087 139.56011557 38.81748267 137.21702068 36.95703125 134.87133789 C35.59992512 133.15580252 34.2567219 131.42998199 32.9140625 129.703125 C24.69123042 119.19017452 16.04882175 108.99730508 7.40234375 98.83203125 C6.60957031 97.89746094 5.81679687 96.96289062 5 96 C3.60974609 94.61361328 3.60974609 94.61361328 2.19140625 93.19921875 C-0.68316504 89.00265211 -0.49292568 85.92925678 0 81 C0.69859131 80.96559814 1.39718262 80.93119629 2.11694336 80.89575195 C28.89080254 80.14535611 28.89080254 80.14535611 52 68 C52.66 66.68 53.32 65.36 54 64 C36.51 63.67 19.02 63.34 1 63 C1 55.74 1 48.48 1 41 C19.81 41 38.62 41 58 41 C53.21886104 30.86210162 53.21886104 30.86210162 44.91723633 24.90087891 C40.7247848 23.60619766 36.6899282 23.642416 32.32421875 23.5859375 C31.3990596 23.56657135 30.47390045 23.5472052 29.52070618 23.5272522 C26.57639683 23.46764746 23.63204798 23.42114752 20.6875 23.375 C18.68683225 23.33680264 16.68618064 23.29774988 14.68554688 23.2578125 C9.79045028 23.16035724 4.89551798 23.08063705 0 23 C0 15.41 0 7.82 0 0 Z " fill="#FBFDFE" transform="translate(146,419)"/>
<path d="M0 0 C1.07056641 -0.00128906 2.14113281 -0.00257813 3.24414062 -0.00390625 C4.93506836 0.00189453 4.93506836 0.00189453 6.66015625 0.0078125 C8.3452832 0.00201172 8.3452832 0.00201172 10.06445312 -0.00390625 C11.67223633 -0.00197266 11.67223633 -0.00197266 13.3125 0 C14.79544556 0.00169189 14.79544556 0.00169189 16.30834961 0.00341797 C18.72265625 0.1328125 18.72265625 0.1328125 20.72265625 1.1328125 C20.39265625 2.1228125 20.06265625 3.1128125 19.72265625 4.1328125 C19.63615041 5.62125966 19.60495452 7.11329507 19.60913086 8.60424805 C19.60924416 9.95530891 19.60924416 9.95530891 19.60935974 11.33366394 C19.61452103 12.30250015 19.61968231 13.27133636 19.625 14.26953125 C19.62641495 15.26410843 19.6278299 16.25868561 19.62928772 17.28340149 C19.63488864 20.46240232 19.64744129 23.64133293 19.66015625 26.8203125 C19.66517113 28.97460836 19.66973406 31.12890532 19.67382812 33.28320312 C19.68485837 38.56643024 19.70159739 43.84961635 19.72265625 49.1328125 C20.31687378 48.41508667 20.31687378 48.41508667 20.9230957 47.68286133 C21.4512085 47.05404053 21.97932129 46.42521973 22.5234375 45.77734375 C23.04333252 45.15448486 23.56322754 44.53162598 24.09887695 43.88989258 C29.38422564 38.17065419 36.24106787 36.78128135 43.72265625 36.1328125 C54.02872534 35.79054452 63.00092213 38.12371313 70.88671875 45.02734375 C80.99450281 55.93084699 82.02137735 68.10504228 82.13671875 82.3515625 C82.15545616 83.81987566 82.17503144 85.28817834 82.19540405 86.75646973 C82.24645991 90.59665719 82.28622654 94.43687946 82.32354736 98.27722168 C82.36375471 102.20573346 82.41477021 106.13410378 82.46484375 110.0625 C82.56128813 117.75250667 82.64579224 125.44258252 82.72265625 133.1328125 C80.11314389 134.43756868 78.1956434 134.24582822 75.27734375 134.23046875 C74.20097656 134.22724609 73.12460937 134.22402344 72.015625 134.22070312 C70.88769531 134.21232422 69.75976562 134.20394531 68.59765625 134.1953125 C66.89416016 134.18854492 66.89416016 134.18854492 65.15625 134.18164062 C62.34499987 134.16982865 59.53385395 134.15335757 56.72265625 134.1328125 C56.08568746 124.29182063 55.63160791 114.48876574 55.6953125 104.625 C55.70357559 103.31647064 55.70357559 103.31647064 55.71200562 101.98150635 C55.73944059 98.41594363 55.77480332 94.85055577 55.81860352 91.28515625 C55.84895513 88.62759785 55.86659164 85.970177 55.8828125 83.3125 C55.89627213 82.52173065 55.90973175 81.7309613 55.92359924 80.91622925 C55.94747666 75.55352457 55.55214748 70.21913906 53.72265625 65.1328125 C52.73265625 64.6378125 52.73265625 64.6378125 51.72265625 64.1328125 C51.72265625 63.1428125 51.72265625 62.1528125 51.72265625 61.1328125 C46.42986506 57.78999701 41.80493658 57.30554717 35.72265625 58.1328125 C30.2161981 59.74165592 26.7268333 62.52509188 23.68359375 67.35546875 C18.95782904 76.09621243 19.57740782 86.64597659 19.66015625 96.3203125 C19.66394287 97.34463379 19.66772949 98.36895508 19.67163086 99.42431641 C19.68374132 102.66052685 19.70239099 105.8966435 19.72265625 109.1328125 C19.74918309 113.42447645 19.76917158 117.71609787 19.78515625 122.0078125 C19.79345459 122.99418701 19.80175293 123.98056152 19.81030273 124.99682617 C19.81525757 126.35964722 19.81525757 126.35964722 19.8203125 127.75 C19.82816772 128.95052002 19.82816772 128.95052002 19.83618164 130.17529297 C19.72265625 132.1328125 19.72265625 132.1328125 18.72265625 134.1328125 C14.74350466 134.16168234 10.76437972 134.17956656 6.78515625 134.1953125 C5.64884766 134.20369141 4.51253906 134.21207031 3.34179688 134.22070312 C2.26220703 134.22392578 1.18261719 134.22714844 0.0703125 134.23046875 C-0.92991943 134.23570557 -1.93015137 134.24094238 -2.96069336 134.24633789 C-5.27734375 134.1328125 -5.27734375 134.1328125 -6.27734375 133.1328125 C-6.43577025 131.0619653 -6.52858797 128.98603221 -6.59375 126.91015625 C-6.63564453 125.65009766 -6.67753906 124.39003906 -6.72070312 123.09179688 C-6.76051971 121.75130514 -6.80023189 120.4108103 -6.83984375 119.0703125 C-6.88302417 117.72589727 -6.92663831 116.3814959 -6.97070312 115.03710938 C-7.07719733 111.7357891 -7.17920835 108.43439014 -7.27734375 105.1328125 C-7.60734375 105.1328125 -7.93734375 105.1328125 -8.27734375 105.1328125 C-8.27734375 102.8228125 -8.27734375 100.5128125 -8.27734375 98.1328125 C-7.94734375 98.1328125 -7.61734375 98.1328125 -7.27734375 98.1328125 C-7.26703629 96.91980972 -7.25672882 95.70680695 -7.24610901 94.45704651 C-7.14855537 83.05229332 -7.0458389 71.64759689 -6.93800449 60.24293613 C-6.88272709 54.37901802 -6.82929953 48.51509496 -6.7800293 42.65112305 C-6.73245663 36.99715105 -6.68011668 31.34324184 -6.624403 25.68934441 C-6.60394717 23.52709443 -6.58523956 21.36482722 -6.56826973 19.20254707 C-6.54429691 16.18517925 -6.514233 13.16793131 -6.48266602 10.15063477 C-6.47691055 9.2472084 -6.47115509 8.34378204 -6.46522522 7.41297913 C-6.37655392 0.00728333 -6.37655392 0.00728333 0 0 Z " fill="#0F1216" transform="translate(856.27734375,427.8671875)"/>
<path d="M0 0 C1.0828125 1.36125 1.0828125 1.36125 2.1875 2.75 C2.67734375 3.265625 3.1671875 3.78125 3.671875 4.3125 C17.4255553 19.01940567 14.48967068 42.43665866 14.39331055 61.12426758 C14.37474028 64.86481354 14.37280358 68.60511531 14.37304688 72.34570312 C14.3681417 74.72135633 14.36231781 77.09700786 14.35546875 79.47265625 C14.35435593 80.59221207 14.3532431 81.71176788 14.35209656 82.86524963 C14.34571671 83.88819626 14.33933685 84.91114288 14.33276367 85.96508789 C14.32895187 86.86787979 14.32514008 87.77067169 14.32121277 88.70082092 C14.1875 90.75 14.1875 90.75 13.1875 91.75 C11.47977642 91.83713831 9.76851351 91.85700007 8.05859375 91.84765625 C6.50688477 91.84282227 6.50688477 91.84282227 4.92382812 91.83789062 C3.83521484 91.82951172 2.74660156 91.82113281 1.625 91.8125 C-0.0137207 91.80573242 -0.0137207 91.80573242 -1.68554688 91.79882812 C-4.39458495 91.78699826 -7.10351599 91.77051543 -9.8125 91.75 C-11.12876692 88.13026598 -11.8125 85.65432869 -11.8125 81.75 C-14.21540298 83.14523399 -16.56354295 84.57375574 -18.83203125 86.1796875 C-29.20215161 93.48054282 -38.48815607 95.13008386 -51 93 C-59.87742596 90.94920223 -65.4947847 87.21172784 -70.8125 79.75 C-75.4444645 71.41246391 -75.65722213 62.76902744 -73.0703125 53.71484375 C-70.0487883 46.59267956 -64.74024997 41.35522687 -57.875 37.875 C-43.48954096 32.22855769 -28.08590306 30.8947521 -12.8125 29.75 C-12.93213716 28.31039755 -13.06326818 26.87174732 -13.19921875 25.43359375 C-13.27100342 24.63236084 -13.34278809 23.83112793 -13.41674805 23.00561523 C-13.99349177 19.71842505 -15.41628227 18.009291 -17.8125 15.75 C-21.14759725 13.64711789 -23.84334611 13.48029431 -27.75 13.5 C-28.76964844 13.49484375 -29.78929687 13.4896875 -30.83984375 13.484375 C-34.66222107 13.82592777 -37.4338196 14.72466561 -40.51953125 17.01953125 C-42.27166992 19.36453859 -42.80038414 21.6057215 -43.5 24.4375 C-43.75136719 25.43136719 -44.00273438 26.42523438 -44.26171875 27.44921875 C-44.44347656 28.20847656 -44.62523437 28.96773438 -44.8125 29.75 C-45.1425 29.09 -45.4725 28.43 -45.8125 27.75 C-57.1975 27.255 -57.1975 27.255 -68.8125 26.75 C-66.42983057 14.83665285 -63.75584582 7.06430924 -53.60546875 0.2734375 C-39.76372543 -7.79108757 -13.37161687 -10.6972935 0 0 Z M-46.8125 54.75 C-48.25999778 59.09249334 -48.47044458 63.21668956 -47.8125 67.75 C-45.28573961 71.09625024 -43.77316458 72.42977847 -39.8125 73.75 C-31.88289942 74.4823965 -25.76778339 73.26699852 -19.0625 69 C-14.22424571 64.16174571 -11.9218733 58.92182571 -11.6875 52.125 C-11.57456331 48.8810376 -11.57456331 48.8810376 -12.8125 46.75 C-24.31805025 46.00324554 -37.65102475 47.2712447 -46.8125 54.75 Z M-12.8125 78.75 C-11.8125 80.75 -11.8125 80.75 -11.8125 80.75 Z " fill="#0F1317" transform="translate(690.8125,470.25)"/>
<path d="M0 0 C0.71902496 0.00561951 1.43804993 0.01123901 2.17886353 0.01702881 C2.9367215 0.01513046 3.69457947 0.01323212 4.47540283 0.01127625 C6.98733781 0.00756332 9.49898538 0.01827996 12.01089478 0.02947998 C13.75202399 0.03067162 15.49315385 0.03112498 17.23428345 0.03086853 C20.88609838 0.03243429 24.53781541 0.04073095 28.18960571 0.05413818 C32.87741229 0.07112815 37.56511118 0.07495257 42.25294495 0.074193 C45.84908075 0.07446456 49.44519286 0.07994351 53.0413208 0.08719444 C54.77013978 0.09038315 56.49896144 0.09234899 58.2277832 0.09308815 C60.64121091 0.09524958 63.05452304 0.10398954 65.46792603 0.11468506 C66.18695099 0.11423187 66.90597595 0.11377869 67.64678955 0.11331177 C72.59443916 0.14547092 72.59443916 0.14547092 74.82339478 1.25994873 C74.85227292 4.73909814 74.87015165 8.21821704 74.88589478 11.69744873 C74.89427368 12.69067139 74.90265259 13.68389404 74.9112854 14.70721436 C74.91450806 15.65145264 74.91773071 16.59569092 74.92105103 17.56854248 C74.92628784 18.44309082 74.93152466 19.31763916 74.93692017 20.21868896 C74.82339478 22.25994873 74.82339478 22.25994873 73.82339478 23.25994873 C72.07410758 23.3535988 70.32103224 23.37739311 68.56924438 23.37347412 C67.44815781 23.37339859 66.32707123 23.37332306 65.17201233 23.37324524 C63.3423568 23.36550331 63.3423568 23.36550331 61.47573853 23.35760498 C60.23417496 23.35619003 58.99261139 23.35477509 57.71342468 23.35331726 C54.40733987 23.34865464 51.10132331 23.3396637 47.79525757 23.32861328 C44.42378328 23.318397 41.05230195 23.31381918 37.68081665 23.30877686 C31.06165703 23.29772268 24.44252985 23.28096609 17.82339478 23.25994873 C17.98605331 24.01265549 18.14871185 24.76536224 18.31629944 25.5408783 C18.95809225 28.98220331 18.93499718 32.24774424 18.92105103 35.74822998 C18.91855347 37.03511719 18.91605591 38.32200439 18.91348267 39.64788818 C18.90437866 41.27299316 18.89527466 42.89809814 18.88589478 44.57244873 C18.86526978 49.74932373 18.84464478 54.92619873 18.82339478 60.25994873 C34.66339478 60.58994873 50.50339478 60.91994873 66.82339478 61.25994873 C66.82339478 68.84994873 66.82339478 76.43994873 66.82339478 84.25994873 C66.16339478 84.25994873 65.50339478 84.25994873 64.82339478 84.25994873 C64.82339478 83.59994873 64.82339478 82.93994873 64.82339478 82.25994873 C64.18297241 82.42438477 63.54255005 82.5888208 62.88272095 82.75823975 C58.85151952 83.41932976 54.95055958 83.34407108 50.87417603 83.28729248 C49.1222248 83.2746564 47.37027158 83.26229471 45.61831665 83.25018311 C42.86621844 83.22527836 40.11422443 83.19718741 37.36221313 83.16400146 C34.69952709 83.13391328 32.03697712 83.11606914 29.37417603 83.09979248 C28.54710648 83.08633286 27.72003693 83.07287323 26.86790466 83.05900574 C24.85197467 83.05009644 22.83611732 83.14592653 20.82339478 83.25994873 C18.379727 85.25790868 18.379727 85.25790868 18.61221313 89.23138428 C18.61932406 90.95321467 18.63709651 92.67502087 18.66323853 94.39666748 C18.66844009 95.30946976 18.67364166 96.22227203 18.67900085 97.16273499 C18.69685322 100.09113253 18.72799293 103.01918453 18.76089478 105.94744873 C18.78859432 108.85782797 18.81334251 111.76815296 18.83207703 114.67860413 C18.84423842 116.49065201 18.86174604 118.30267435 18.88539124 120.11460876 C18.92325929 124.94971952 18.64601974 129.4930769 17.82339478 134.25994873 C13.84424319 134.28881857 9.86511824 134.30670279 5.88589478 134.32244873 C4.74958618 134.33082764 3.61327759 134.33920654 2.4425354 134.34783936 C1.36294556 134.35106201 0.28335571 134.35428467 -0.82894897 134.35760498 C-1.82918091 134.3628418 -2.82941284 134.36807861 -3.85995483 134.37347412 C-6.17660522 134.25994873 -6.17660522 134.25994873 -7.17660522 133.25994873 C-7.27715127 131.56899462 -7.30736868 129.87382406 -7.31031799 128.17988586 C-7.31458298 127.07914734 -7.31884796 125.97840881 -7.32324219 124.84431458 C-7.322789 123.62610519 -7.32233582 122.40789581 -7.3218689 121.152771 C-7.32690681 119.24079422 -7.32690681 119.24079422 -7.33204651 117.29019165 C-7.34090688 113.78402528 -7.34322547 110.2778833 -7.3438623 106.77170682 C-7.34480973 103.8490965 -7.34848612 100.9264919 -7.35203439 98.00388378 C-7.36018671 91.11096434 -7.36261792 84.21805798 -7.36190796 77.32513428 C-7.36130697 70.20477488 -7.37186115 63.0844912 -7.38765162 55.96415097 C-7.40070891 49.85968784 -7.40609262 43.75524951 -7.40545255 37.65077251 C-7.40519702 34.00099114 -7.40807805 30.351277 -7.4186306 26.70150948 C-7.43007161 22.63312697 -7.42557591 18.56491505 -7.41952515 14.496521 C-7.42514465 13.28033585 -7.43076416 12.0641507 -7.43655396 10.81111145 C-7.43235947 9.7075531 -7.42816498 8.60399475 -7.42384338 7.46699524 C-7.42438815 6.5040986 -7.42493292 5.54120195 -7.42549419 4.54912663 C-6.91173189 -0.17624677 -4.09546388 0.02618004 0 0 Z " fill="#1B2D4A" transform="translate(388.1766052246094,427.74005126953125)"/>
<path d="M0 0 C0 0.66 0 1.32 0 2 C0.53625 2.0825 1.0725 2.165 1.625 2.25 C8.27161096 4.34892978 13.11731104 9.38329461 17 15 C20.22113346 21.40345808 21.46664571 27.66434463 21.82421875 34.78515625 C21.8638811 37.04030218 21.8638811 37.04030218 23 39 C22.835 39.928125 22.67 40.85625 22.5 41.8125 C22.00033489 44.99786506 22.26798281 46.90926076 23 50 C23 54.43513689 22.13764351 57.73383684 21 62 C22.485 62.495 22.485 62.495 24 63 C23.49396008 65.16874252 23.00016187 66.99967627 22 69 C21.90190142 71.67751418 21.8609603 74.32309717 21.875 77 C21.87113281 77.73734375 21.86726562 78.4746875 21.86328125 79.234375 C21.78582588 83.24721641 21.78582588 83.24721641 23 87 C22.71758117 89.3400417 22.38749213 91.67504723 22 94 C22.66 94.33 23.32 94.66 24 95 C20.55366118 97.29755922 19.28931609 97.23643976 15.23828125 97.1953125 C14.12001953 97.18886719 13.00175781 97.18242188 11.84960938 97.17578125 C10.09874023 97.15064453 10.09874023 97.15064453 8.3125 97.125 C7.13365234 97.11597656 5.95480469 97.10695313 4.74023438 97.09765625 C1.82661974 97.07406423 -1.08658892 97.0411454 -4 97 C-5.38074575 94.2385085 -5.13998384 91.9918393 -5.15771484 88.90136719 C-5.16797699 87.61953552 -5.17823914 86.33770386 -5.18881226 85.01702881 C-5.19225018 84.32969414 -5.1956881 83.64235947 -5.19923019 82.93419647 C-5.21102129 80.78157861 -5.23047624 78.6291612 -5.25234985 76.47662354 C-5.31394613 70.35574053 -5.3679344 64.23487621 -5.40136719 58.11376953 C-5.42236569 54.37006185 -5.45771397 50.62671675 -5.50212479 46.88321686 C-5.51624868 45.45918306 -5.52499906 44.03508509 -5.52817917 42.6109848 C-5.53311227 40.61264787 -5.55792305 38.61439033 -5.58349609 36.61621094 C-5.59562637 34.91316803 -5.59562637 34.91316803 -5.60800171 33.17572021 C-6.05726139 29.53610472 -7.109509 27.1278346 -9 24 C-13.97140223 20.36238861 -19.07881575 20.34107378 -25 21 C-30.09826883 22.06398654 -33.79740029 23.8839216 -36.97265625 28.203125 C-40.31996278 34.05772958 -41.39709754 40.36807291 -42 47 C-41.34 47 -40.68 47 -40 47 C-40.33 47.66 -40.66 48.32 -41 49 C-41.33 49 -41.66 49 -42 49 C-41.99214478 49.98842896 -41.99214478 49.98842896 -41.98413086 50.99682617 C-41.81727622 75.1865254 -41.81727622 75.1865254 -43 86 C-42.34 86.33 -41.68 86.66 -41 87 C-41.165 87.78375 -41.33 88.5675 -41.5 89.375 C-42.0623707 91.88208039 -42.0623707 91.88208039 -42 94 C-41.34 94.33 -40.68 94.66 -40 95 C-43.44633882 97.29755922 -44.71068391 97.23643976 -48.76171875 97.1953125 C-49.87998047 97.18886719 -50.99824219 97.18242188 -52.15039062 97.17578125 C-53.90125977 97.15064453 -53.90125977 97.15064453 -55.6875 97.125 C-56.86634766 97.11597656 -58.04519531 97.10695313 -59.25976562 97.09765625 C-62.17338026 97.07406423 -65.08658892 97.0411454 -68 97 C-68.15364199 84.90891585 -68.3018238 72.81777845 -68.4429636 60.72654152 C-68.50866795 55.11257886 -68.57627922 49.49865245 -68.64819336 43.88476562 C-68.71747747 38.47078373 -68.78182456 33.05676393 -68.84269524 27.64268112 C-68.86683913 25.57332591 -68.89278593 23.50399096 -68.92053413 21.43468094 C-68.95898633 18.54453959 -68.99112587 15.65439375 -69.02172852 12.76416016 C-69.03467453 11.90173203 -69.04762054 11.03930389 -69.06095886 10.15074158 C-69.11405216 4.22810432 -69.11405216 4.22810432 -68 2 C-55.625 1.505 -55.625 1.505 -43 1 C-42.0318352 4.8726592 -41.92377142 8.03611362 -42 12 C-41.38125 11.29875 -40.7625 10.5975 -40.125 9.875 C-28.65361494 -1.46713002 -15.10567813 -1.95814346 0 0 Z M22 63 C23 65 23 65 23 65 Z " fill="#0F1317" transform="translate(584,465)"/>
<path d="M0 0 C1.07636719 0.04833984 2.15273438 0.09667969 3.26171875 0.14648438 C4.38964844 0.20255859 5.51757812 0.25863281 6.6796875 0.31640625 C7.81535156 0.36861328 8.95101562 0.42082031 10.12109375 0.47460938 C12.93251886 0.60454919 15.74363652 0.74110963 18.5546875 0.87890625 C18.5546875 8.46890625 18.5546875 16.05890625 18.5546875 23.87890625 C21.0915625 23.89953125 23.6284375 23.92015625 26.2421875 23.94140625 C27.03197998 23.95051025 27.82177246 23.95961426 28.63549805 23.96899414 C32.40975443 23.98378766 35.88944807 23.79702342 39.5546875 22.87890625 C41.17631179 30.37891861 41.17631179 38.37889389 39.5546875 45.87890625 C37.5746875 45.87890625 35.5946875 45.87890625 33.5546875 45.87890625 C33.5546875 45.21890625 33.5546875 44.55890625 33.5546875 43.87890625 C28.6046875 44.20890625 23.6546875 44.53890625 18.5546875 44.87890625 C18.48013498 50.98036066 18.42589567 57.08154571 18.38989258 63.18334961 C18.37487229 65.25598779 18.35445003 67.32859454 18.32836914 69.40112305 C18.29168726 72.39249461 18.27489315 75.38344335 18.26171875 78.375 C18.24623489 79.29099472 18.23075104 80.20698944 18.21479797 81.15074158 C18.21332949 86.85526348 18.50487951 92.88562178 21.5546875 97.87890625 C27.43357137 100.18631998 33.87255375 99.15175975 39.5546875 96.87890625 C40.30746265 99.61139966 40.72110453 102.15991308 40.87109375 104.98828125 C40.91298828 105.74238281 40.95488281 106.49648438 40.99804688 107.2734375 C41.03736328 108.05074219 41.07667969 108.82804688 41.1171875 109.62890625 C41.16037109 110.42167969 41.20355469 111.21445312 41.24804688 112.03125 C41.35371741 113.9802844 41.45466716 115.92957373 41.5546875 117.87890625 C32.99878763 122.77934426 22.40544358 122.85898545 12.9296875 120.69140625 C4.84927097 118.24544233 -0.3049405 114.20020831 -4.4453125 106.87890625 C-8.61546577 95.92852761 -7.83651715 84.01026249 -7.7265625 72.50024414 C-7.69502399 69.16085791 -7.68554417 65.82194325 -7.6796875 62.48242188 C-7.67053086 60.36067127 -7.66015941 58.23892548 -7.6484375 56.1171875 C-7.64206268 54.61893181 -7.64206268 54.61893181 -7.63555908 53.09040833 C-7.62595154 52.17152328 -7.61634399 51.25263824 -7.60644531 50.3059082 C-7.59961731 49.49684525 -7.59278931 48.68778229 -7.58575439 47.85420227 C-7.4453125 45.87890625 -7.4453125 45.87890625 -6.4453125 43.87890625 C-7.7446875 43.89953125 -9.0440625 43.92015625 -10.3828125 43.94140625 C-11.73696883 43.96290079 -13.09287333 43.95038824 -14.4453125 43.87890625 C-16.5473155 41.77690325 -15.67641045 37.39592042 -15.6953125 34.50390625 C-15.7159375 33.72273438 -15.7365625 32.9415625 -15.7578125 32.13671875 C-15.79750334 26.34185629 -15.79750334 26.34185629 -14.12402344 24.14208984 C-11.6306466 22.26589267 -9.46819859 22.67738051 -6.4453125 22.87890625 C-6.5175 22.21246094 -6.5896875 21.54601562 -6.6640625 20.859375 C-7.33729514 14.1738009 -7.56224261 7.59589145 -7.4453125 0.87890625 C-4.79709238 -0.44520381 -2.95593056 -0.14001776 0 0 Z M34.5546875 43.87890625 C38.5546875 44.87890625 38.5546875 44.87890625 38.5546875 44.87890625 Z " fill="#0F1317" transform="translate(798.4453125,442.12109375)"/>
<path d="M0 0 C1.64889766 1.64889766 1.12998381 3.57345384 1.1328125 5.83984375 C1.13410156 6.82017578 1.13539063 7.80050781 1.13671875 8.81054688 C1.13285156 9.84244141 1.12898437 10.87433594 1.125 11.9375 C1.13080078 13.47954102 1.13080078 13.47954102 1.13671875 15.05273438 C1.13542969 16.03435547 1.13414062 17.01597656 1.1328125 18.02734375 C1.13168457 18.93218506 1.13055664 19.83702637 1.12939453 20.76928711 C1 23 1 23 0 25 C-1.0621875 24.95359375 -2.124375 24.9071875 -3.21875 24.859375 C-12.95607889 24.55778141 -19.29185172 24.8149793 -26.8125 31.5 C-30.14734171 35.87486014 -31.1860334 41.65938238 -32 47 C-31.505 47.495 -31.505 47.495 -31 48 C-30.95833998 50.3329614 -30.95833998 52.6670386 -31 55 C-31 55.33 -31 55.66 -31 56 C-31.185625 57.155 -31.37125 58.31 -31.5625 59.5 C-31.706875 60.655 -31.85125 61.81 -32 63 C-31.505 63.495 -31.505 63.495 -31 64 C-30.90148829 65.83115883 -30.87027371 67.66619933 -30.875 69.5 C-30.87113281 71.00046875 -30.87113281 71.00046875 -30.8671875 72.53125 C-31 75 -31 75 -32 76 C-31.67 76 -31.34 76 -31 76 C-30.92377142 79.96388638 -31.0318352 83.1273408 -32 87 C-32.33 90.63 -32.66 94.26 -33 98 C-41.25 98 -49.5 98 -58 98 C-59.65875797 94.68248407 -59.12889303 90.97402946 -59.11352539 87.32763672 C-59.11374443 85.9812059 -59.11374443 85.9812059 -59.1139679 84.60757446 C-59.11326953 81.63158782 -59.10548067 78.65566325 -59.09765625 75.6796875 C-59.0957918 73.61988357 -59.09436802 71.56007919 -59.09336853 69.50027466 C-59.08954548 64.07182598 -59.07971699 58.64340395 -59.06866455 53.21496582 C-59.05844588 47.67847046 -59.05386993 42.14197081 -59.04882812 36.60546875 C-59.03809455 25.73696744 -59.02102065 14.86848594 -59 4 C-58.01 3.67 -57.02 3.34 -56 3 C-56 2.34 -56 1.68 -56 1 C-55.34 1.33 -54.68 1.66 -54 2 C-51.62597499 2.07116382 -49.24999323 2.08409085 -46.875 2.0625 C-45.59367188 2.05347656 -44.31234375 2.04445313 -42.9921875 2.03515625 C-41.51105469 2.01775391 -41.51105469 2.01775391 -40 2 C-40 1.67 -40 1.34 -40 1 C-37.69 1 -35.38 1 -33 1 C-33 5.62 -33 10.24 -33 15 C-32.34 15 -31.68 15 -31 15 C-30.690625 14.38125 -30.38125 13.7625 -30.0625 13.125 C-29.375 11.75 -28.6875 10.375 -28 9 C-27.34 9 -26.68 9 -26 9 C-25.67 8.01 -25.34 7.02 -25 6 C-17.10413311 0.7663411 -9.26721111 -0.319559 0 0 Z M-33 68 C-32 71 -32 71 -32 71 Z " fill="#0F1317" transform="translate(775,464)"/>
<path d="M0 0 C0.66 0.33 1.32 0.66 2 1 C4.82274537 1.0984342 7.61528097 1.13898292 10.4375 1.125 C11.21416016 1.12886719 11.99082031 1.13273437 12.79101562 1.13671875 C16.11081172 1.13099989 18.82993506 1.05668831 22 0 C23.41158407 2.82316815 23.20065998 5.28008061 23.28125 8.43359375 C23.31863281 9.72201172 23.35601562 11.01042969 23.39453125 12.33789062 C23.43021241 13.70441348 23.46536283 15.07095029 23.5 16.4375 C23.56773943 19.1030781 23.64149361 21.76824839 23.71875 24.43359375 C23.74904297 25.62009521 23.77933594 26.80659668 23.81054688 28.02905273 C23.87664016 31.0552758 23.87664016 31.0552758 25 34 C24.34 34 23.68 34 23 34 C23.03029297 34.99515625 23.06058594 35.9903125 23.09179688 37.015625 C24.0934823 70.26689178 24.0934823 70.26689178 24.1875 85.1875 C24.20039063 86.17041016 24.21328125 87.15332031 24.2265625 88.16601562 C24.22849609 89.49729492 24.22849609 89.49729492 24.23046875 90.85546875 C24.23457764 91.61496826 24.23868652 92.37446777 24.24291992 93.15698242 C24 95 24 95 22 97 C19.56982422 97.22705078 19.56982422 97.22705078 16.5546875 97.1953125 C15.47832031 97.18886719 14.40195312 97.18242188 13.29296875 97.17578125 C12.16503906 97.15902344 11.03710938 97.14226562 9.875 97.125 C8.17150391 97.11146484 8.17150391 97.11146484 6.43359375 97.09765625 C3.62218701 97.07403098 0.81119702 97.04109013 -2 97 C-3.65875797 93.68248407 -3.12889303 89.97402946 -3.11352539 86.32763672 C-3.11374443 84.9812059 -3.11374443 84.9812059 -3.1139679 83.60757446 C-3.11326953 80.63158782 -3.10548067 77.65566325 -3.09765625 74.6796875 C-3.0957918 72.61988357 -3.09436802 70.56007919 -3.09336853 68.50027466 C-3.08954548 63.07182598 -3.07971699 57.64340395 -3.06866455 52.21496582 C-3.05844588 46.67847046 -3.05386993 41.14197081 -3.04882812 35.60546875 C-3.03809455 24.73696744 -3.02102065 13.86848594 -3 3 C-2.01 2.67 -1.02 2.34 0 2 C0 1.34 0 0.68 0 0 Z " fill="#11151A" transform="translate(479,465)"/>
<path d="M0 0 C7.92 0 15.84 0 24 0 C24 30.03 24 60.06 24 91 C16.08 91 8.16 91 0 91 C0 60.97 0 30.94 0 0 Z " fill="#FDFEFE" transform="translate(267,482)"/>
<path d="M0 0 C7.92 0 15.84 0 24 0 C24 22.44 24 44.88 24 68 C16.08 68 8.16 68 0 68 C0 45.56 0 23.12 0 0 Z " fill="#FBFDFE" transform="translate(229,505)"/>
<path d="M0 0 C0.74507812 0.185625 1.49015625 0.37125 2.2578125 0.5625 C3.12019531 0.7790625 3.12019531 0.7790625 4 1 C3.67 1.33 3.34 1.66 3 2 C3.69867188 2.39832031 4.39734375 2.79664063 5.1171875 3.20703125 C6.02726563 3.73683594 6.93734375 4.26664062 7.875 4.8125 C8.77992188 5.33457031 9.68484375 5.85664063 10.6171875 6.39453125 C13 8 13 8 15 11 C12.55501863 9.78362177 10.11968677 8.55050044 7.6875 7.30859375 C6.45838069 6.68480251 5.22921283 6.06110693 4 5.4375 C3.38382813 5.12103516 2.76765625 4.80457031 2.1328125 4.47851562 C-3.59104395 1.58588002 -7.59038406 0.87452195 -14.00598145 0.85282898 C-14.71147047 0.84915229 -15.41695949 0.8454756 -16.14382696 0.8416875 C-18.50800142 0.83067408 -20.87213188 0.82681075 -23.23632812 0.82299805 C-24.93171324 0.81673144 -26.62709699 0.81008446 -28.32247925 0.80308533 C-33.8920598 0.78205935 -39.46164057 0.7716817 -45.03125 0.76171875 C-46.95147211 0.75767012 -48.87169408 0.75355316 -50.79191589 0.74936867 C-59.81757801 0.73031722 -68.84323196 0.71608822 -77.86891031 0.7077567 C-88.27053964 0.69799555 -98.67195553 0.67170517 -109.07350969 0.63125581 C-117.12296998 0.60103326 -125.17236931 0.58628186 -133.2218852 0.58297569 C-138.02448978 0.58063147 -142.82686634 0.57175363 -147.62940979 0.54651451 C-152.15372705 0.52312231 -156.67766797 0.51904506 -161.20203018 0.52927589 C-162.85471478 0.52976873 -164.5074186 0.52352348 -166.16004562 0.50971985 C-182.28066755 0.38270192 -194.01366766 3.76877786 -206.06640625 14.91015625 C-217.04718524 26.46013329 -218.30188481 40.61655946 -218.29052734 55.74072266 C-218.29651884 57.3349336 -218.30332581 58.92914165 -218.31088257 60.52334595 C-218.32849036 64.83773987 -218.33323585 69.15205435 -218.33451414 73.46648073 C-218.3359397 76.16823804 -218.34021704 78.86997541 -218.34550858 81.57172775 C-218.36399433 91.01544212 -218.37218135 100.45910017 -218.37060547 109.90283203 C-218.36940572 118.67559041 -218.39047904 127.44810211 -218.4220928 136.22079813 C-218.44833938 143.77611677 -218.45896921 151.33135529 -218.45769465 158.88671911 C-218.45718731 163.3886244 -218.46274295 167.89031048 -218.48405075 172.39216995 C-218.50357405 176.63258393 -218.50346257 180.87257283 -218.48901749 185.11300278 C-218.48694535 186.65841552 -218.49153363 188.20385586 -218.5037384 189.7492218 C-218.58278724 200.46306369 -218.13448564 211.79827154 -212 221 C-212.33 221.99 -212.66 222.98 -213 224 C-220.28866404 211.49691624 -221.45344458 198.57846324 -221.40405273 184.34423828 C-221.40977237 182.8312022 -221.41674271 181.31817043 -221.42485046 179.80514526 C-221.44262186 175.73885046 -221.441644 171.67277331 -221.43590808 167.60645151 C-221.43279262 164.19240075 -221.43893466 160.7783904 -221.44494683 157.36434543 C-221.45893804 149.3003164 -221.45747622 141.23639344 -221.44604492 133.17236328 C-221.43457072 124.8959647 -221.44863998 116.61989046 -221.4754414 108.34353459 C-221.49770314 101.19739085 -221.50421229 94.05134813 -221.49836498 86.90517223 C-221.49501891 82.65481276 -221.49725186 78.404661 -221.51461601 74.15433121 C-221.53025136 70.1534702 -221.52594921 66.15308412 -221.50731087 62.15224075 C-221.50367022 60.69797344 -221.50659831 59.24366959 -221.51719666 57.78943634 C-221.63838636 39.76116283 -217.91000099 24.6442366 -205.38671875 11.29296875 C-196.41891864 2.67742265 -185.20600547 -2.07627084 -172.78730774 -2.16494751 C-171.53591003 -2.17618149 -170.28451233 -2.18741547 -168.99519348 -2.19898987 C-167.61569267 -2.20648865 -166.2361913 -2.21388575 -164.85668945 -2.22119141 C-163.39748834 -2.2324154 -161.93829032 -2.244048 -160.47909546 -2.25605774 C-156.51758832 -2.28735086 -152.55606424 -2.31250335 -148.59450555 -2.3362546 C-145.27553781 -2.35673095 -141.95659457 -2.3802571 -138.63764733 -2.40379179 C-130.79092695 -2.45940451 -122.94418545 -2.51010699 -115.09741211 -2.55761719 C-107.04341392 -2.60645314 -98.98949411 -2.66278662 -90.93557388 -2.72303832 C-83.99514682 -2.77472724 -77.05469912 -2.82197814 -70.11421746 -2.86572587 C-65.98108968 -2.89179994 -61.8479877 -2.91937737 -57.71489906 -2.9510994 C-12.80179542 -3.29042131 -12.80179542 -3.29042131 0 0 Z " fill="#1E54C1" transform="translate(308,376)"/>
<path d="M0 0 C1.07636719 0.00322266 2.15273438 0.00644531 3.26171875 0.00976562 C4.38964844 0.01814453 5.51757812 0.02652344 6.6796875 0.03515625 C7.81535156 0.03966797 8.95101563 0.04417969 10.12109375 0.04882812 C12.93234388 0.0606401 15.7434898 0.07711118 18.5546875 0.09765625 C19.7123077 2.41289664 19.68371055 3.76881687 19.6875 6.34375 C19.68943359 7.59961914 19.68943359 7.59961914 19.69140625 8.88085938 C19.68753906 9.75677734 19.68367188 10.63269531 19.6796875 11.53515625 C19.68548828 12.84323242 19.68548828 12.84323242 19.69140625 14.17773438 C19.69011719 15.01626953 19.68882812 15.85480469 19.6875 16.71875 C19.68637207 17.48630615 19.68524414 18.2538623 19.68408203 19.04467773 C19.5546875 21.09765625 19.5546875 21.09765625 18.5546875 24.09765625 C14.40886863 24.12652376 10.26307534 24.14440952 6.1171875 24.16015625 C4.34118164 24.17272461 4.34118164 24.17272461 2.52929688 24.18554688 C1.40458984 24.18876953 0.27988281 24.19199219 -0.87890625 24.1953125 C-2.44209595 24.20316772 -2.44209595 24.20316772 -4.03686523 24.21118164 C-6.4453125 24.09765625 -6.4453125 24.09765625 -7.4453125 23.09765625 C-7.53231592 21.46292743 -7.55232313 19.8245157 -7.54296875 18.1875 C-7.53974609 17.19814453 -7.53652344 16.20878906 -7.53320312 15.18945312 C-7.52482422 14.14853516 -7.51644531 13.10761719 -7.5078125 12.03515625 C-7.50330078 10.99037109 -7.49878906 9.94558594 -7.49414062 8.86914062 C-7.48231163 6.27858965 -7.46582939 3.68815066 -7.4453125 1.09765625 C-4.83580014 -0.20709993 -2.91829965 -0.01535947 0 0 Z " fill="#11161D" transform="translate(483.4453125,427.90234375)"/>
<path d="M0 0 C7.59 0 15.18 0 23 0 C23 8.58 23 17.16 23 26 C15.41 26 7.82 26 0 26 C0 17.42 0 8.84 0 0 Z " fill="#FCFEFE" transform="translate(147,547)"/>
<path d="M0 0 C0.99 0 1.98 0 3 0 C2.67 42.9 2.34 85.8 2 130 C8.93 130 15.86 130 23 130 C23 127.69 23 125.38 23 123 C23.33 123 23.66 123 24 123 C24 125.64 24 128.28 24 131 C16.08 131 8.16 131 0 131 C0 87.77 0 44.54 0 0 Z " fill="#1B345C" transform="translate(381,430)"/>
<path d="M0 0 C4.21752518 -0.02473064 8.43501186 -0.04287453 12.65258789 -0.05493164 C14.08716568 -0.05995842 15.52173836 -0.06678079 16.95629883 -0.07543945 C19.01905582 -0.08757752 21.08174504 -0.09324486 23.14453125 -0.09765625 C24.38565674 -0.10289307 25.62678223 -0.10812988 26.90551758 -0.11352539 C30 0 30 0 33 1 C33.598125 0.835 34.19625 0.67 34.8125 0.5 C37.71949566 -0.16445615 40.08202379 0.5033232 43 1 C43.99 0.67 44.98 0.34 46 0 C46.99 0.33 47.98 0.66 49 1 C49.99 0.67 50.98 0.34 52 0 C52.495 1.485 52.495 1.485 53 3 C13.73518636 3.20638953 13.73518636 3.20638953 -1 2 C-0.67 1.34 -0.34 0.68 0 0 Z " fill="#17233A" transform="translate(409,448)"/>
<path d="M0 0 C0.99 0.33 1.98 0.66 3 1 C2.34 1.66 1.68 2.32 1 3 C0.836415 6.07634354 0.793155 9.06191635 0.83984375 12.13671875 C0.84504532 13.04952103 0.85024689 13.9623233 0.85560608 14.90278625 C0.87345845 17.8311838 0.90459816 20.7592358 0.9375 23.6875 C0.96519955 26.59787924 0.98994774 29.50820423 1.00868225 32.4186554 C1.02084365 34.23070328 1.03835126 36.04272562 1.06199646 37.85466003 C1.06852737 38.68854752 1.07505829 39.522435 1.08178711 40.3815918 C1.09004013 41.10614059 1.09829315 41.83068939 1.10679626 42.57719421 C0.96752858 45.73665457 0.44724904 48.86925672 0 52 C-7.92 52 -15.84 52 -24 52 C-24 51.67 -24 51.34 -24 51 C-16.41 51 -8.82 51 -1 51 C-1.01160156 47.40222656 -1.02320313 43.80445313 -1.03515625 40.09765625 C-1.04294557 36.62931405 -1.04902304 33.16097281 -1.05493164 29.69262695 C-1.05997349 27.27432828 -1.06680678 24.85603267 -1.07543945 22.43774414 C-1.08751157 18.97020717 -1.09322963 15.50271034 -1.09765625 12.03515625 C-1.10281754 10.94662857 -1.10797882 9.85810089 -1.11329651 8.73658752 C-1.11340981 7.23514442 -1.11340981 7.23514442 -1.11352539 5.70336914 C-1.115746 4.81734512 -1.11796661 3.93132111 -1.12025452 3.01844788 C-1 1 -1 1 0 0 Z " fill="#23385B" transform="translate(406,510)"/>
<path d="M0 0 C1.34061543 0.30271961 2.67405895 0.63837971 4 1 C4.99 0.67 5.98 0.34 7 0 C7.33 0.99 7.66 1.98 8 3 C4.7 2.67 1.4 2.34 -2 2 C-1.34 1.34 -0.68 0.68 0 0 Z " fill="#121A28" transform="translate(454,448)"/>
<path d="M0 0 C2 1 2 1 4 3 C3.67 3.99 3.34 4.98 3 6 C1.5 4.6875 1.5 4.6875 0 3 C0 2.01 0 1.02 0 0 Z " fill="#316EDC" transform="translate(88,592)"/>
<path d="M0 0 C0.33 0 0.66 0 1 0 C1 2.31 1 4.62 1 7 C0.67 7 0.34 7 0 7 C0 4.69 0 2.38 0 0 Z " fill="#21252B" transform="translate(503,544)"/>
<path d="M0 0 C0.33 0 0.66 0 1 0 C1 2.31 1 4.62 1 7 C0.67 7 0.34 7 0 7 C0 4.69 0 2.38 0 0 Z " fill="#22262C" transform="translate(503,520)"/>
<path d="M0 0 C0.99 0.495 0.99 0.495 2 1 C1.67 2.32 1.34 3.64 1 5 C0 2 0 2 0 0 Z " fill="#22272D" transform="translate(542,519)"/>
<path d="M0 0 C0.33 0 0.66 0 1 0 C1 1.65 1 3.3 1 5 C0.67 5 0.34 5 0 5 C0 3.35 0 1.7 0 0 Z " fill="#20252A" transform="translate(543,504)"/>
<path d="M0 0 C0.66 0 1.32 0 2 0 C2 0.66 2 1.32 2 2 C1.34 2 0.68 2 0 2 C0 1.34 0 0.68 0 0 Z " fill="#22262C" transform="translate(576,528)"/>
<path d="M0 0 C0.66 0.66 1.32 1.32 2 2 C1.34 2 0.68 2 0 2 C0 1.34 0 0.68 0 0 Z " fill="#2F6FE3" transform="translate(120,622)"/>
<path d="M0 0 C0.66 0.66 1.32 1.32 2 2 C1.34 2 0.68 2 0 2 C0 1.34 0 0.68 0 0 Z " fill="#316DDD" transform="translate(92,598)"/>
<path d="" fill="#20242A" transform="translate(0,0)"/>
<path d="" fill="#22262C" transform="translate(0,0)"/>
<path d="" fill="#21262B" transform="translate(0,0)"/>
<path d="" fill="#21262C" transform="translate(0,0)"/>
<path d="" fill="#22272D" transform="translate(0,0)"/>
<path d="" fill="#20252A" transform="translate(0,0)"/>
<path d="" fill="#20262C" transform="translate(0,0)"/>
<path d="" fill="#22262B" transform="translate(0,0)"/>
<path d="" fill="#21272C" transform="translate(0,0)"/>
<path d="" fill="#21272C" transform="translate(0,0)"/>
<path d="M0 0 C3 1 3 1 3 1 Z " fill="#22272B" transform="translate(722,465)"/>
<path d="" fill="#21262A" transform="translate(0,0)"/>
<path d="" fill="#283C60" transform="translate(0,0)"/>
<path d="" fill="#21262A" transform="translate(0,0)"/>
<path d="M0 0 C2 1 2 1 2 1 Z " fill="#3172E3" transform="translate(303,623)"/>
<path d="M0 0 C2 1 2 1 2 1 Z " fill="#3272E3" transform="translate(307,622)"/>
<path d="M0 0 C2 1 2 1 2 1 Z " fill="#3370DF" transform="translate(315,618)"/>
<path d="" fill="#306EDE" transform="translate(0,0)"/>
<path d="" fill="#3270E0" transform="translate(0,0)"/>
<path d="" fill="#3472E3" transform="translate(0,0)"/>
<path d="" fill="#20252B" transform="translate(0,0)"/>
<path d="" fill="#21252A" transform="translate(0,0)"/>
<path d="" fill="#212629" transform="translate(0,0)"/>
<path d="" fill="#21262A" transform="translate(0,0)"/>
<path d="" fill="#21262C" transform="translate(0,0)"/>
<path d="" fill="#21252A" transform="translate(0,0)"/>
<path d="" fill="#23272B" transform="translate(0,0)"/>
<path d="" fill="#21262C" transform="translate(0,0)"/>
<path d="" fill="#21262B" transform="translate(0,0)"/>
<path d="" fill="#21272C" transform="translate(0,0)"/>
<path d="" fill="#283B5D" transform="translate(0,0)"/>
<path d="" fill="#21262B" transform="translate(0,0)"/>
<path d="" fill="#20272B" transform="translate(0,0)"/>
<path d="" fill="#21262A" transform="translate(0,0)"/>
<path d="" fill="#21272A" transform="translate(0,0)"/>
<path d="" fill="#22282D" transform="translate(0,0)"/>
<path d="" fill="#22262B" transform="translate(0,0)"/>
<path d="M0 0 C2 1 2 1 2 1 Z " fill="#202427" transform="translate(823,487)"/>
<path d="" fill="#24282D" transform="translate(0,0)"/>
<path d="" fill="#3377EA" transform="translate(0,0)"/>
<path d="" fill="#21262B" transform="translate(0,0)"/>
<path d="" fill="#21252A" transform="translate(0,0)"/>
<path d="M0 0 C2 1 2 1 2 1 Z " fill="#23272A" transform="translate(823,465)"/>
<path d="M0 0 C2 1 2 1 2 1 Z " fill="#24262A" transform="translate(727,465)"/>
<path d="M0 0 C2 1 2 1 2 1 Z " fill="#23272B" transform="translate(538,465)"/>
<path d="M0 0 C2 1 2 1 2 1 Z " fill="#23282C" transform="translate(530,465)"/>
<path d="M0 0 C2 1 2 1 2 1 Z " fill="#25272B" transform="translate(527,465)"/>
<path d="M0 0 C2 1 2 1 2 1 Z " fill="#23292D" transform="translate(519,465)"/>
<path d="M0 0 C2 1 2 1 2 1 Z " fill="#23282D" transform="translate(516,465)"/>
<path d="M0 0 C2 1 2 1 2 1 Z " fill="#22282F" transform="translate(487,465)"/>
<path d="M0 0 C2 1 2 1 2 1 Z " fill="#21242A" transform="translate(913,464)"/>
<path d="" fill="#21262B" transform="translate(0,0)"/>
<path d="M0 0 C2 1 2 1 2 1 Z " fill="#252830" transform="translate(500,455)"/>
<path d="" fill="#22262B" transform="translate(0,0)"/>
<path d="M0 0 C2 1 2 1 2 1 Z " fill="#24282A" transform="translate(794,441)"/>
<path d="M0 0 C2 1 2 1 2 1 Z " fill="#316FDD" transform="translate(102,385)"/>
<path d="" fill="#0E0F0E" transform="translate(0,0)"/>
<path d="" fill="#0C0D0D" transform="translate(0,0)"/>
<path d="" fill="#3472E3" transform="translate(0,0)"/>
<path d="" fill="#346EDE" transform="translate(0,0)"/>
<path d="" fill="#181A1C" transform="translate(0,0)"/>
<path d="" fill="#3571DE" transform="translate(0,0)"/>
<path d="" fill="#306FDC" transform="translate(0,0)"/>
<path d="" fill="#326EE0" transform="translate(0,0)"/>
<path d="" fill="#3170E0" transform="translate(0,0)"/>
<path d="" fill="#2F6FE0" transform="translate(0,0)"/>
<path d="" fill="#3372E1" transform="translate(0,0)"/>
<path d="" fill="#306DDF" transform="translate(0,0)"/>
<path d="" fill="#306FDE" transform="translate(0,0)"/>
<path d="" fill="#2F6EDD" transform="translate(0,0)"/>
<path d="" fill="#316DDB" transform="translate(0,0)"/>
<path d="" fill="#326DDA" transform="translate(0,0)"/>
<path d="" fill="#2A3E62" transform="translate(0,0)"/>
<path d="" fill="#222327" transform="translate(0,0)"/>
<path d="" fill="#202529" transform="translate(0,0)"/>
<path d="" fill="#212328" transform="translate(0,0)"/>
<path d="" fill="#202428" transform="translate(0,0)"/>
<path d="" fill="#20252A" transform="translate(0,0)"/>
<path d="" fill="#2C4268" transform="translate(0,0)"/>
<path d="" fill="#2C446C" transform="translate(0,0)"/>
<path d="" fill="#2E456E" transform="translate(0,0)"/>
<path d="" fill="#1F2226" transform="translate(0,0)"/>
<path d="" fill="#212429" transform="translate(0,0)"/>
<path d="" fill="#20252A" transform="translate(0,0)"/>
<path d="" fill="#1F2327" transform="translate(0,0)"/>
<path d="" fill="#1F2125" transform="translate(0,0)"/>
<path d="" fill="#20242A" transform="translate(0,0)"/>
<path d="" fill="#293E62" transform="translate(0,0)"/>
<path d="" fill="#202328" transform="translate(0,0)"/>
<path d="" fill="#3474E6" transform="translate(0,0)"/>
<path d="" fill="#20252B" transform="translate(0,0)"/>
<path d="" fill="#212529" transform="translate(0,0)"/>
<path d="" fill="#222429" transform="translate(0,0)"/>
<path d="" fill="#22272B" transform="translate(0,0)"/>
<path d="" fill="#21252A" transform="translate(0,0)"/>
<path d="" fill="#222429" transform="translate(0,0)"/>
<path d="" fill="#23272C" transform="translate(0,0)"/>
<path d="" fill="#3475E8" transform="translate(0,0)"/>
<path d="" fill="#21262A" transform="translate(0,0)"/>
<path d="" fill="#23272A" transform="translate(0,0)"/>
<path d="" fill="#202327" transform="translate(0,0)"/>
<path d="" fill="#22272B" transform="translate(0,0)"/>
<path d="" fill="#23272B" transform="translate(0,0)"/>
<path d="" fill="#24282E" transform="translate(0,0)"/>
<path d="" fill="#22252B" transform="translate(0,0)"/>
<path d="" fill="#212629" transform="translate(0,0)"/>
<path d="" fill="#21262D" transform="translate(0,0)"/>
<path d="" fill="#23262B" transform="translate(0,0)"/>
<path d="" fill="#3674EB" transform="translate(0,0)"/>
<path d="" fill="#23272D" transform="translate(0,0)"/>
<path d="" fill="#20262C" transform="translate(0,0)"/>
<path d="" fill="#22272C" transform="translate(0,0)"/>
<path d="" fill="#23272D" transform="translate(0,0)"/>
<path d="" fill="#273E5F" transform="translate(0,0)"/>
<path d="" fill="#24262B" transform="translate(0,0)"/>
<path d="" fill="#212529" transform="translate(0,0)"/>
<path d="" fill="#242629" transform="translate(0,0)"/>
<path d="" fill="#1F252B" transform="translate(0,0)"/>
<path d="" fill="#22282D" transform="translate(0,0)"/>
<path d="" fill="#283D5E" transform="translate(0,0)"/>
<path d="" fill="#273C5C" transform="translate(0,0)"/>
<path d="" fill="#24272B" transform="translate(0,0)"/>
<path d="" fill="#21262A" transform="translate(0,0)"/>
<path d="" fill="#23252A" transform="translate(0,0)"/>
<path d="" fill="#22262B" transform="translate(0,0)"/>
<path d="" fill="#22282B" transform="translate(0,0)"/>
<path d="" fill="#22262C" transform="translate(0,0)"/>
<path d="" fill="#293C5F" transform="translate(0,0)"/>
<path d="" fill="#23272C" transform="translate(0,0)"/>
<path d="" fill="#24242B" transform="translate(0,0)"/>
<path d="" fill="#22252B" transform="translate(0,0)"/>
<path d="" fill="#212327" transform="translate(0,0)"/>
<path d="" fill="#23262B" transform="translate(0,0)"/>
<path d="" fill="#21262B" transform="translate(0,0)"/>
<path d="" fill="#202527" transform="translate(0,0)"/>
<path d="" fill="#22272B" transform="translate(0,0)"/>
<path d="" fill="#22262A" transform="translate(0,0)"/>
<path d="" fill="#252629" transform="translate(0,0)"/>
<path d="" fill="#3275EB" transform="translate(0,0)"/>
<path d="" fill="#202426" transform="translate(0,0)"/>
<path d="" fill="#222429" transform="translate(0,0)"/>
<path d="" fill="#22252A" transform="translate(0,0)"/>
<path d="" fill="#22232B" transform="translate(0,0)"/>
<path d="" fill="#1F2126" transform="translate(0,0)"/>
<path d="" fill="#2B3D5B" transform="translate(0,0)"/>
<path d="" fill="#202327" transform="translate(0,0)"/>
<path d="" fill="#202528" transform="translate(0,0)"/>
<path d="" fill="#23282A" transform="translate(0,0)"/>
<path d="" fill="#22252A" transform="translate(0,0)"/>
<path d="" fill="#21262D" transform="translate(0,0)"/>
<path d="" fill="#20272C" transform="translate(0,0)"/>
<path d="" fill="#21262A" transform="translate(0,0)"/>
<path d="" fill="#202427" transform="translate(0,0)"/>
<path d="" fill="#21242C" transform="translate(0,0)"/>
<path d="" fill="#23282D" transform="translate(0,0)"/>
<path d="" fill="#20252A" transform="translate(0,0)"/>
<path d="" fill="#1E2429" transform="translate(0,0)"/>
<path d="" fill="#22272C" transform="translate(0,0)"/>
<path d="" fill="#252629" transform="translate(0,0)"/>
<path d="" fill="#25262A" transform="translate(0,0)"/>
<path d="" fill="#23272A" transform="translate(0,0)"/>
<path d="" fill="#22242A" transform="translate(0,0)"/>
<path d="" fill="#21262A" transform="translate(0,0)"/>
<path d="" fill="#232829" transform="translate(0,0)"/>
<path d="" fill="#23282A" transform="translate(0,0)"/>
<path d="" fill="#23282E" transform="translate(0,0)"/>
<path d="" fill="#24282E" transform="translate(0,0)"/>
<path d="" fill="#3474E9" transform="translate(0,0)"/>
<path d="" fill="#273B5E" transform="translate(0,0)"/>
<path d="" fill="#3875E4" transform="translate(0,0)"/>
<path d="" fill="#283854" transform="translate(0,0)"/>
<path d="" fill="#24262B" transform="translate(0,0)"/>
<path d="" fill="#23262C" transform="translate(0,0)"/>
<path d="" fill="#23282C" transform="translate(0,0)"/>
<path d="" fill="#222529" transform="translate(0,0)"/>
<path d="" fill="#21252F" transform="translate(0,0)"/>
<path d="" fill="#3172E1" transform="translate(0,0)"/>
<path d="" fill="#3372E1" transform="translate(0,0)"/>
<path d="" fill="#3271E3" transform="translate(0,0)"/>
<path d="" fill="#3573E0" transform="translate(0,0)"/>
<path d="" fill="#3672DE" transform="translate(0,0)"/>
<path d="" fill="#356FDC" transform="translate(0,0)"/>
<path d="" fill="#3073E3" transform="translate(0,0)"/>
<path d="" fill="#2E71E2" transform="translate(0,0)"/>
<path d="" fill="#3072E4" transform="translate(0,0)"/>
<path d="" fill="#3072E7" transform="translate(0,0)"/>
<path d="" fill="#3272E4" transform="translate(0,0)"/>
<path d="" fill="#3472E3" transform="translate(0,0)"/>
<path d="" fill="#2E6EE3" transform="translate(0,0)"/>
<path d="" fill="#3370DB" transform="translate(0,0)"/>
<path d="" fill="#3572E1" transform="translate(0,0)"/>
<path d="" fill="#3276EB" transform="translate(0,0)"/>
<path d="" fill="#2F75EE" transform="translate(0,0)"/>
<path d="" fill="#3174EA" transform="translate(0,0)"/>
<path d="" fill="#3171E3" transform="translate(0,0)"/>
<path d="" fill="#3375EB" transform="translate(0,0)"/>
<path d="" fill="#3373E7" transform="translate(0,0)"/>
<path d="" fill="#3372E9" transform="translate(0,0)"/>
<path d="" fill="#3271E3" transform="translate(0,0)"/>
<path d="" fill="#15171A" transform="translate(0,0)"/>
<path d="" fill="#141819" transform="translate(0,0)"/>
<path d="" fill="#0C0F13" transform="translate(0,0)"/>
<path d="" fill="#0F110E" transform="translate(0,0)"/>
</svg>
